<mxfile host="app.diagrams.net" agent="Mozilla/5.0 (Macintosh; Intel Mac OS X 10.15; rv:137.0) Gecko/20100101 Firefox/137.0" version="26.2.14">
  <diagram name="Seite-1" id="fRk0fHp6u16eHB7_5ZvV">
    <mxGraphModel dx="817" dy="498" grid="1" gridSize="10" guides="1" tooltips="1" connect="1" arrows="1" fold="1" page="1" pageScale="1" pageWidth="827" pageHeight="1169" math="0" shadow="0">
      <root>
        <mxCell id="0" />
        <mxCell id="1" parent="0" />
        <mxCell id="h4Sl14XQF3uMrTUC3KLR-5" style="edgeStyle=orthogonalEdgeStyle;rounded=0;orthogonalLoop=1;jettySize=auto;html=1;exitX=0;exitY=0.5;exitDx=0;exitDy=0;entryX=1;entryY=0.5;entryDx=0;entryDy=0;shape=flexArrow;startArrow=block;strokeWidth=1;fillColor=#1F1F1F;startFill=0;endArrow=none;" parent="1" source="h4Sl14XQF3uMrTUC3KLR-2" target="h4Sl14XQF3uMrTUC3KLR-3" edge="1">
          <mxGeometry relative="1" as="geometry" />
        </mxCell>
        <mxCell id="h4Sl14XQF3uMrTUC3KLR-2" value="open-set AA/&lt;br&gt;many-candidates problem" style="rounded=1;whiteSpace=wrap;html=1;fillColor=#FFCC99;" parent="1" vertex="1">
          <mxGeometry x="280" y="210" width="150" height="30" as="geometry" />
        </mxCell>
        <mxCell id="h4Sl14XQF3uMrTUC3KLR-3" value="open-set AV" style="rounded=1;whiteSpace=wrap;html=1;fillColor=#FFCC99;" parent="1" vertex="1">
          <mxGeometry x="130" y="210" width="90" height="30" as="geometry" />
        </mxCell>
      </root>
    </mxGraphModel>
  </diagram>
</mxfile>
